<svg xmlns="http://www.w3.org/2000/svg" viewBox="0 0 27.9 97.12"><defs><style>.cls-1{fill:#a2000e;}.cls-2{opacity:0.8;}.cls-3{fill:#e76a00;}</style></defs><title>Asset 5</title><g id="Layer_2" data-name="Layer 2"><g id="Layer_1-2" data-name="Layer 1"><path class="cls-1" d="M27.9,27,13.47,78A38.23,38.23,0,0,0,12,84.2a2.64,2.64,0,0,0,.69,1.89,2.19,2.19,0,0,0,1.64.73A4.64,4.64,0,0,0,17,85.66a43.63,43.63,0,0,0,8.38-9.32L27.9,78A51.62,51.62,0,0,1,16.24,90.76q-5,3.87-9.47,3.86a6.85,6.85,0,0,1-4.88-1.78A5.9,5.9,0,0,1,0,88.36a37.37,37.37,0,0,1,1.82-9l9.47-32.63q2.33-8,2.33-10.05a3.38,3.38,0,0,0-1.13-2.62,4.46,4.46,0,0,0-3.1-1,54.17,54.17,0,0,0-6.63.8V31Z"/><g class="cls-2"><path class="cls-3" d="M26.53,7.91c.15,4.32-3,7.77-8.06,7.77a7.53,7.53,0,0,1-7.62-7.77A7.72,7.72,0,0,1,18.76,0C23.51,0,26.53,3.45,26.53,7.91ZM12.43,97.12V27.48H25.09V97.12Z"/></g></g></g></svg>