<svg xmlns="http://www.w3.org/2000/svg" viewBox="0 0 95.32 47.65"><defs><style>.cls-1{fill:#73b85b;}.cls-2{fill:#718f5b;}.cls-3,.cls-4{font-size:28.94px;fill:#395139;font-family:MyriadPro-Regular, Myriad Pro;}.cls-3{letter-spacing:-0.01em;}.cls-4{letter-spacing:-0.01em;}.cls-5{letter-spacing:-0.01em;}.cls-6{letter-spacing:-0.01em;}.cls-7{fill:none;stroke:#4d4d4b;stroke-miterlimit:10;stroke-width:2px;}.cls-8{font-size:3.28px;fill:#4d4d4b;font-family:FranklinGothic-Demi, Franklin Gothic Demi;letter-spacing:0.01em;}.cls-9{letter-spacing:-0.01em;}.cls-10{letter-spacing:0em;}.cls-11{letter-spacing:0em;}.cls-12{letter-spacing:0.01em;}</style></defs><title>Asset 4</title><g id="Layer_2" data-name="Layer 2"><g id="Layer_1-2" data-name="Layer 1"><path class="cls-1" d="M37.83,4.56a16.54,16.54,0,0,1,7.37-1.46,19.18,19.18,0,1,1-18,12.4q.32-.84.71-1.64a16.87,16.87,0,0,0-1.07,5,40.61,40.61,0,0,0,.5,5.81A17.87,17.87,0,1,0,45.06,4.19,61.73,61.73,0,0,0,37.83,4.56Z"/><polygon class="cls-2" points="45.56 5.28 45.01 5.28 44.33 0 45.01 0 53.2 2.82 53.02 10.71 64.98 13.02 53.2 38.13 53.29 23.02 47.06 18.79 51.88 10.56 45.33 1.46 45.01 1.46 45.56 5.28"/><text class="cls-3" transform="translate(0 40.28)">P</text><text class="cls-4" transform="translate(15.05 40.28) scale(0.7)">ERIÓDI<tspan class="cls-5" x="80.76" y="0">C</tspan><tspan class="cls-6" x="97.31" y="0">A</tspan></text><line class="cls-7" x1="16.44" y1="42.77" x2="95.06" y2="42.77"/><text class="cls-8" transform="translate(24.2 46.65)">Índice de <tspan class="cls-9" x="14.13" y="0">R</tspan><tspan class="cls-10" x="16.24" y="0">e</tspan><tspan class="cls-11" x="17.98" y="0">vi</tspan><tspan class="cls-12" x="20.36" y="0">st</tspan><tspan class="cls-11" x="23.15" y="0">as Latinoamericanas en Ciencias</tspan></text></g></g></svg>